<svg width="65" height="65" viewBox="0 0 65 65" fill="none" xmlns="http://www.w3.org/2000/svg">
<path d="M32.4484 12.4402C35.8836 12.4402 38.6685 9.65537 38.6685 6.2201C38.6685 2.78483 35.8836 0 32.4484 0C29.0131 0 26.2283 2.78483 26.2283 6.2201C26.2283 9.65537 29.0131 12.4402 32.4484 12.4402Z" fill="white"/>
<path d="M32.4484 65.0001C35.8836 65.0001 38.6685 62.2153 38.6685 58.78C38.6685 55.3448 35.8836 52.5599 32.4484 52.5599C29.0131 52.5599 26.2283 55.3448 26.2283 58.78C26.2283 62.2153 29.0131 65.0001 32.4484 65.0001Z" fill="white"/>
<path d="M6.2201 38.6682C9.65537 38.6682 12.4402 35.8834 12.4402 32.4481C12.4402 29.0129 9.65537 26.228 6.2201 26.228C2.78483 26.228 0 29.0129 0 32.4481C0 35.8834 2.78483 38.6682 6.2201 38.6682Z" fill="white"/>
<path d="M58.78 38.6682C62.2153 38.6682 65.0001 35.8834 65.0001 32.4481C65.0001 29.0129 62.2153 26.228 58.78 26.228C55.3447 26.228 52.5599 29.0129 52.5599 32.4481C52.5599 35.8834 55.3447 38.6682 58.78 38.6682Z" fill="white"/>
<path d="M50.3827 49.2425L41.9856 40.8454C39.8085 38.6683 38.6682 35.6619 38.6682 32.5519V32.4482C38.6682 29.3382 39.8085 26.3318 41.9856 24.1548L50.4864 15.654C52.6634 13.4769 55.6698 12.3366 58.7798 12.3366C60.4385 12.3366 61.9936 11.7146 63.2376 10.4705C65.4146 8.18983 65.5183 4.45777 63.3412 2.0734C60.9569 -0.518308 56.9138 -0.621977 54.4258 1.86606C53.1817 3.11008 52.5597 4.66511 52.6634 6.3238C52.6634 9.43385 51.5231 12.4402 49.346 14.6173L40.9489 23.0144C38.7718 25.1914 35.7655 26.3318 32.6554 26.3318H32.5518C29.4417 26.3318 26.4353 25.1914 24.2583 23.0144L15.6538 14.5136C13.4768 12.3366 12.3364 9.33018 12.3364 6.22013C12.3364 4.56144 11.7144 3.00641 10.4704 1.76239C8.18969 -0.518308 4.35396 -0.518308 2.07326 1.55506C-0.518453 3.93943 -0.622121 7.98249 1.86592 10.4705C3.10994 11.7146 4.66496 12.3366 6.32366 12.2329C9.43371 12.2329 12.4401 13.3732 14.6171 15.5503L23.0143 23.9474C25.1913 26.1245 26.3316 29.1308 26.3316 32.2409V32.3446C26.3316 35.4546 25.1913 38.461 23.0143 40.638L14.5135 49.3462C12.3364 51.5232 9.33004 52.6635 6.21999 52.6635C4.5613 52.6635 3.00627 53.2856 1.76225 54.5296C-0.414784 56.8103 -0.518453 60.5423 1.65858 62.9267C4.04295 65.5184 8.08602 65.6221 10.5741 63.1341C11.8181 61.89 12.4401 60.335 12.3364 58.6763C12.3364 55.5663 13.4768 52.5599 15.6538 50.3828L24.0509 41.9857C26.228 39.8087 29.2344 38.6683 32.3444 38.6683H32.4481C35.5581 38.6683 38.5645 39.8087 40.7415 41.9857L49.2424 50.4865C51.4194 52.6635 52.5597 55.6699 52.5597 58.78C52.5597 60.4387 53.1817 61.9937 54.4258 63.2377C56.7065 65.4147 60.4385 65.5184 62.8229 63.3414C65.4146 60.957 65.5183 56.9139 63.0302 54.4259C61.7862 53.1819 60.2312 52.5599 58.5725 52.6635C55.5661 52.5599 52.5597 51.5232 50.3827 49.2425Z" fill="white"/>
</svg>
